<svg xmlns="http://www.w3.org/2000/svg" width="920" height="724" viewBox="0 0 920 724" font-family="-apple-system,BlinkMacSystemFont,'Segoe UI','Noto Sans',Helvetica,Arial,sans-serif" role="img" aria-label="densezip beats the best competitor on all 20 benchmark files">
<text x="16" y="30" font-size="16" fill="#0b0b0b" font-weight="600" text-anchor="start">How much smaller densezip's output is, per file</text>
<text x="16" y="52" font-size="12" fill="#52514e" font-weight="normal" text-anchor="start">Reduction vs the best (smallest) output of gzip −9 · bzip2 −9 · xz −9e · zstd −22 · 7z −mx=9, chosen per file — a stricter baseline than any single tool.</text>
<text x="16" y="70" font-size="12" fill="#52514e" font-weight="normal" text-anchor="start">Longer bar = bigger win. densezip wins on every file; every archive is verified to reconstruct bit-exactly.</text>
<text x="184.0" y="100" font-size="11" fill="#898781" font-weight="normal" text-anchor="start">0</text>
<text x="349.0" y="100" font-size="11" fill="#898781" font-weight="normal" text-anchor="middle">−20%</text>
<text x="514.0" y="100" font-size="11" fill="#898781" font-weight="normal" text-anchor="middle">−40%</text>
<text x="679.0" y="100" font-size="11" fill="#898781" font-weight="normal" text-anchor="middle">−60%</text>
<text x="844.0" y="100" font-size="11" fill="#898781" font-weight="normal" text-anchor="middle">−80%</text>
<line x1="184.0" y1="112" x2="184.0" y2="708" stroke="#c3c2b7" stroke-width="1"/>
<line x1="349.0" y1="112" x2="349.0" y2="708" stroke="#e1e0d9" stroke-width="1"/>
<line x1="514.0" y1="112" x2="514.0" y2="708" stroke="#e1e0d9" stroke-width="1"/>
<line x1="679.0" y1="112" x2="679.0" y2="708" stroke="#e1e0d9" stroke-width="1"/>
<line x1="844.0" y1="112" x2="844.0" y2="708" stroke="#e1e0d9" stroke-width="1"/>
<text x="16" y="132" font-size="13" fill="#0b0b0b" font-weight="600" text-anchor="start">Real-world files</text>
<text x="176" y="155" font-size="12.5" fill="#52514e" font-weight="normal" text-anchor="end">sample.png</text>
<path d="M184,144 h649.4 a4,4 0 0 1 4,4 v6 a4,4 0 0 1 -4,4 h-649.4 z" fill="#2a78d6"/>
<text x="843.4" y="155" font-size="12" fill="#0b0b0b" font-weight="600" text-anchor="start">−79.2%</text>
<text x="176" y="181" font-size="12.5" fill="#52514e" font-weight="normal" text-anchor="end">sample.pdf</text>
<path d="M184,170 h459.6 a4,4 0 0 1 4,4 v6 a4,4 0 0 1 -4,4 h-459.6 z" fill="#2a78d6"/>
<text x="653.65" y="181" font-size="12" fill="#0b0b0b" font-weight="600" text-anchor="start">−56.2%</text>
<text x="176" y="207" font-size="12.5" fill="#52514e" font-weight="normal" text-anchor="end">inventory.db</text>
<path d="M184,196 h430.8 a4,4 0 0 1 4,4 v6 a4,4 0 0 1 -4,4 h-430.8 z" fill="#2a78d6"/>
<text x="624.775" y="207" font-size="12" fill="#0b0b0b" font-weight="600" text-anchor="start">−52.7%</text>
<text x="176" y="233" font-size="12.5" fill="#52514e" font-weight="normal" text-anchor="end">src.tar.gz</text>
<path d="M184,222 h278.2 a4,4 0 0 1 4,4 v6 a4,4 0 0 1 -4,4 h-278.2 z" fill="#2a78d6"/>
<text x="472.15000000000003" y="233" font-size="12" fill="#0b0b0b" font-weight="600" text-anchor="start">−34.2%</text>
<text x="176" y="259" font-size="12.5" fill="#52514e" font-weight="normal" text-anchor="end">report.docx</text>
<path d="M184,248 h216.3 a4,4 0 0 1 4,4 v6 a4,4 0 0 1 -4,4 h-216.3 z" fill="#2a78d6"/>
<text x="410.275" y="259" font-size="12" fill="#0b0b0b" font-weight="600" text-anchor="start">−26.7%</text>
<text x="176" y="285" font-size="12.5" fill="#52514e" font-weight="normal" text-anchor="end">sales.csv</text>
<path d="M184,274 h173.4 a4,4 0 0 1 4,4 v6 a4,4 0 0 1 -4,4 h-173.4 z" fill="#2a78d6"/>
<text x="367.375" y="285" font-size="12" fill="#0b0b0b" font-weight="600" text-anchor="start">−21.5%</text>
<text x="176" y="311" font-size="12.5" fill="#52514e" font-weight="normal" text-anchor="end">photo.jpg</text>
<path d="M184,300 h169.2 a4,4 0 0 1 4,4 v6 a4,4 0 0 1 -4,4 h-169.2 z" fill="#2a78d6"/>
<text x="363.25" y="311" font-size="12" fill="#0b0b0b" font-weight="600" text-anchor="start">−21.0%</text>
<text x="176" y="337" font-size="12.5" fill="#52514e" font-weight="normal" text-anchor="end">photo.png</text>
<path d="M184,326 h4.2 a4,4 0 0 1 4,4 v6 a4,4 0 0 1 -4,4 h-4.2 z" fill="#2a78d6"/>
<text x="198.25" y="337" font-size="12" fill="#0b0b0b" font-weight="600" text-anchor="start">−1.0%</text>
<text x="16" y="384" font-size="13" fill="#0b0b0b" font-weight="600" text-anchor="start">Silesia corpus (212 MB standard benchmark)</text>
<text x="176" y="407" font-size="12.5" fill="#52514e" font-weight="normal" text-anchor="end">webster</text>
<path d="M184,396 h222.9 a4,4 0 0 1 4,4 v6 a4,4 0 0 1 -4,4 h-222.9 z" fill="#2a78d6"/>
<text x="416.875" y="407" font-size="12" fill="#0b0b0b" font-weight="600" text-anchor="start">−27.5%</text>
<text x="176" y="433" font-size="12.5" fill="#52514e" font-weight="normal" text-anchor="end">ooffice</text>
<path d="M184,422 h193.2 a4,4 0 0 1 4,4 v6 a4,4 0 0 1 -4,4 h-193.2 z" fill="#2a78d6"/>
<text x="387.17499999999995" y="433" font-size="12" fill="#0b0b0b" font-weight="600" text-anchor="start">−23.9%</text>
<text x="176" y="459" font-size="12.5" fill="#52514e" font-weight="normal" text-anchor="end">dickens</text>
<path d="M184,448 h171.7 a4,4 0 0 1 4,4 v6 a4,4 0 0 1 -4,4 h-171.7 z" fill="#2a78d6"/>
<text x="365.725" y="459" font-size="12" fill="#0b0b0b" font-weight="600" text-anchor="start">−21.3%</text>
<text x="176" y="485" font-size="12.5" fill="#52514e" font-weight="normal" text-anchor="end">samba</text>
<path d="M184,474 h161.0 a4,4 0 0 1 4,4 v6 a4,4 0 0 1 -4,4 h-161.0 z" fill="#2a78d6"/>
<text x="355.0" y="485" font-size="12" fill="#0b0b0b" font-weight="600" text-anchor="start">−20.0%</text>
<text x="176" y="511" font-size="12.5" fill="#52514e" font-weight="normal" text-anchor="end">reymont</text>
<path d="M184,500 h159.3 a4,4 0 0 1 4,4 v6 a4,4 0 0 1 -4,4 h-159.3 z" fill="#2a78d6"/>
<text x="353.35" y="511" font-size="12" fill="#0b0b0b" font-weight="600" text-anchor="start">−19.8%</text>
<text x="176" y="537" font-size="12.5" fill="#52514e" font-weight="normal" text-anchor="end">osdb</text>
<path d="M184,526 h140.4 a4,4 0 0 1 4,4 v6 a4,4 0 0 1 -4,4 h-140.4 z" fill="#2a78d6"/>
<text x="334.375" y="537" font-size="12" fill="#0b0b0b" font-weight="600" text-anchor="start">−17.5%</text>
<text x="176" y="563" font-size="12.5" fill="#52514e" font-weight="normal" text-anchor="end">xml</text>
<path d="M184,552 h133.0 a4,4 0 0 1 4,4 v6 a4,4 0 0 1 -4,4 h-133.0 z" fill="#2a78d6"/>
<text x="326.95000000000005" y="563" font-size="12" fill="#0b0b0b" font-weight="600" text-anchor="start">−16.6%</text>
<text x="176" y="589" font-size="12.5" fill="#52514e" font-weight="normal" text-anchor="end">sao</text>
<path d="M184,578 h101.6 a4,4 0 0 1 4,4 v6 a4,4 0 0 1 -4,4 h-101.6 z" fill="#2a78d6"/>
<text x="295.6" y="589" font-size="12" fill="#0b0b0b" font-weight="600" text-anchor="start">−12.8%</text>
<text x="176" y="615" font-size="12.5" fill="#52514e" font-weight="normal" text-anchor="end">mozilla</text>
<path d="M184,604 h78.5 a4,4 0 0 1 4,4 v6 a4,4 0 0 1 -4,4 h-78.5 z" fill="#2a78d6"/>
<text x="272.5" y="615" font-size="12" fill="#0b0b0b" font-weight="600" text-anchor="start">−10.0%</text>
<text x="176" y="641" font-size="12.5" fill="#52514e" font-weight="normal" text-anchor="end">x-ray</text>
<path d="M184,630 h48.0 a4,4 0 0 1 4,4 v6 a4,4 0 0 1 -4,4 h-48.0 z" fill="#2a78d6"/>
<text x="241.975" y="641" font-size="12" fill="#0b0b0b" font-weight="600" text-anchor="start">−6.3%</text>
<text x="176" y="667" font-size="12.5" fill="#52514e" font-weight="normal" text-anchor="end">mr</text>
<path d="M184,656 h39.7 a4,4 0 0 1 4,4 v6 a4,4 0 0 1 -4,4 h-39.7 z" fill="#2a78d6"/>
<text x="233.725" y="667" font-size="12" fill="#0b0b0b" font-weight="600" text-anchor="start">−5.3%</text>
<text x="176" y="693" font-size="12.5" fill="#52514e" font-weight="normal" text-anchor="end">nci</text>
<path d="M184,682 h1.5 v14 h-1.5 z" fill="#2a78d6"/>
<text x="190.825" y="693" font-size="12" fill="#0b0b0b" font-weight="600" text-anchor="start">−0.1%</text>
</svg>
